<svg preserveAspectRatio="none" overflow="visible" style="display: block;" width="17.5" height="14.1667" viewBox="0 0 17.5 14.1667" fill="none" xmlns="http://www.w3.org/2000/svg">
<path id="Vector" d="M11.25 12.9167H6.25M11.25 12.9167V4.25C11.25 4.11739 11.1973 3.99021 11.1036 3.89645C11.0098 3.80268 10.8826 3.75 10.75 3.75H6.75C6.61739 3.75 6.49021 3.80268 6.39645 3.89645C6.30268 3.99021 6.25 4.11739 6.25 4.25V12.9167M11.25 12.9167H15.75C15.8826 12.9167 16.0098 12.864 16.1036 12.7702C16.1973 12.6765 16.25 12.5493 16.25 12.4167V9.66667C16.25 9.53406 16.1973 9.40688 16.1036 9.31311C16.0098 9.21934 15.8826 9.16667 15.75 9.16667H11.75C11.6174 9.16667 11.4902 9.21934 11.3964 9.31311C11.3027 9.40688 11.25 9.53406 11.25 9.66667V12.9167ZM6.25 12.9167V8C6.25 7.86739 6.19732 7.74021 6.10355 7.64645C6.00979 7.55268 5.88261 7.5 5.75 7.5H1.75C1.61739 7.5 1.49021 7.55268 1.39645 7.64645C1.30268 7.74021 1.25 7.86739 1.25 8V12.4167C1.25 12.5493 1.30268 12.6765 1.39645 12.7702C1.49021 12.864 1.61739 12.9167 1.75 12.9167H6.25ZM11.25 1.25H6.25" stroke="black" stroke-width="2.5" stroke-linecap="round" stroke-linejoin="round"/>
</svg>
