<svg preserveAspectRatio="none" overflow="visible" style="display: block;" width="24.375" height="22.1856" viewBox="0 0 24.375 22.1856" fill="none" xmlns="http://www.w3.org/2000/svg">
<g id="Group">
<path id="Vector" fill-rule="evenodd" clip-rule="evenodd" d="M3.4375 4.06055C2.52582 4.06055 1.65148 4.42272 1.00682 5.06737C0.362164 5.71203 0 6.58637 0 7.49805V18.7481C0 19.6597 0.362164 20.5341 1.00682 21.1787C1.65148 21.8234 2.52582 22.1856 3.4375 22.1856H20.9375C21.8492 22.1856 22.7235 21.8234 23.3682 21.1787C24.0128 20.5341 24.375 19.6597 24.375 18.7481V7.49805C24.375 6.58637 24.0128 5.71203 23.3682 5.06737C22.7235 4.42272 21.8492 4.06055 20.9375 4.06055H3.4375ZM17.8125 11.5606C17.3981 11.5606 17.0007 11.7252 16.7076 12.0182C16.4146 12.3112 16.25 12.7087 16.25 13.1231C16.25 13.5375 16.4146 13.9349 16.7076 14.2279C17.0007 14.5209 17.3981 14.6856 17.8125 14.6856C18.2269 14.6856 18.6243 14.5209 18.9174 14.2279C19.2104 13.9349 19.375 13.5375 19.375 13.1231C19.375 12.7087 19.2104 12.3112 18.9174 12.0182C18.6243 11.7252 18.2269 11.5606 17.8125 11.5606Z" fill="#C1C1C1"/>
<path id="Vector_2" d="M17.7938 0.0843045C18.1639 -0.0143224 18.5517 -0.0265922 18.9273 0.0484421C19.3029 0.123476 19.6562 0.283808 19.96 0.517063C20.2638 0.750318 20.5099 1.05026 20.6794 1.39373C20.8489 1.73721 20.9372 2.11504 20.9375 2.49805H8.4375L17.7938 0.0843045Z" fill="#C1C1C1"/>
</g>
</svg>
